<svg xmlns="http://www.w3.org/2000/svg" xmlns:xlink="http://www.w3.org/1999/xlink" width="100" zoomAndPan="magnify" viewBox="0 0 75 74.999997" height="100" preserveAspectRatio="xMidYMid meet" version="1.0"><defs><clipPath id="2baeee0b7a"><path d="M 26 11.25 L 49 11.25 L 49 63.75 L 26 63.75 Z M 26 11.25 " clip-rule="nonzero"/></clipPath></defs><path fill="#c2b9b4" d="M 19.015625 56.355469 C 17.90625 56.355469 17.164062 55.984375 16.425781 55.246094 L 1.636719 40.457031 C 0.160156 38.980469 0.160156 36.761719 1.636719 35.28125 L 16.425781 20.492188 C 17.90625 19.015625 20.125 19.015625 21.601562 20.492188 C 23.082031 21.972656 23.082031 24.191406 21.601562 25.667969 L 9.402344 37.871094 L 21.601562 50.070312 C 23.082031 51.550781 23.082031 53.769531 21.601562 55.246094 C 20.863281 55.984375 20.125 56.355469 19.015625 56.355469 Z M 19.015625 56.355469 " fill-opacity="1" fill-rule="nonzero"/><path fill="#c2b9b4" d="M 55.984375 56.355469 C 54.875 56.355469 54.136719 55.984375 53.398438 55.246094 C 51.917969 53.769531 51.917969 51.550781 53.398438 50.070312 L 65.597656 37.871094 L 53.398438 25.667969 C 51.917969 24.191406 51.917969 21.972656 53.398438 20.492188 C 54.875 19.015625 57.09375 19.015625 58.574219 20.492188 L 73.363281 35.28125 C 74.839844 36.761719 74.839844 38.980469 73.363281 40.457031 L 58.574219 55.246094 C 57.835938 55.984375 57.09375 56.355469 55.984375 56.355469 Z M 55.984375 56.355469 " fill-opacity="1" fill-rule="nonzero"/><g clip-path="url(#2baeee0b7a)"><path fill="#c2b9b4" d="M 30.105469 63.75 C 29.734375 63.75 29.367188 63.75 28.996094 63.378906 C 27.148438 62.640625 26.039062 60.792969 26.777344 58.574219 L 41.566406 14.207031 C 42.304688 12.359375 44.15625 11.25 46.375 11.988281 C 48.222656 12.730469 49.332031 14.578125 48.589844 16.796875 L 33.804688 61.160156 C 33.0625 62.640625 31.585938 63.75 30.105469 63.75 Z M 30.105469 63.75 " fill-opacity="1" fill-rule="nonzero"/></g></svg>